<svg xmlns="http://www.w3.org/2000/svg" width="450" height="226"><g data-name="h_deco R.svg"><path data-name="シェイプ 3" d="M189.326 164.736h32.118l-28.01-48.322 28.01-48.323h-32.118l-28.01 48.323zm-46.441 0H175l-28.01-48.322L175 68.091h-32.115l-28.01 48.323zm92.881 0H448.7l-28.01-48.322 28.01-48.323H235.766l-28.009 48.323zM49.477 51.373L40.665 93.23 1.3 109.894l36.994 21.134 3.52 42.6 31.708-28.8 41.542 9.632-17.426-38.912 22.179-36.622-42.473 4.721zm21.457 48.512L90.4 97.718l-10.164 16.791 8 17.881-19.085-4.423-14.512 13.181-1.611-19.5-17-9.707 18.089-7.66 4.041-19.191z" fill="#5eeac7" fill-rule="evenodd"/></g></svg>