<svg xmlns="http://www.w3.org/2000/svg" width="450" height="226"><path data-name="シェイプ 3" d="M260.674 164.736h-32.118l28.01-48.322-28.01-48.323h32.118l28.01 48.323zm46.441 0H275l28.01-48.322L275 68.091h32.118l28.01 48.323zm-92.881 0H1.3l28.01-48.322L1.3 68.091h212.934l28.009 48.323zM400.523 51.373l8.812 41.857 39.365 16.664-36.994 21.134-3.521 42.6-31.707-28.8-41.542 9.632 17.427-38.911-22.18-36.622 42.473 4.721zm-21.457 48.512L359.6 97.718l10.164 16.791-8 17.881 19.085-4.423 14.515 13.181 1.612-19.5 17-9.707-18.088-7.66-4.046-19.191z" fill="#5eeac7" fill-rule="evenodd"/></svg>